<?xml version="1.0" encoding="UTF-8"?>
<svg id="Layer_2" data-name="Layer 2" xmlns="http://www.w3.org/2000/svg" viewBox="0 0 90 90">
  <defs>
    <style>
      .cls-1 {
        fill: #562301;
        stroke-width: 0px;
      }
    </style>
  </defs>
  <g id="Layer_1-2" data-name="Layer 1">
    <path class="cls-1" d="m42.94,1.32c1.13,1.03,2.98,1.03,4.11,0l.72-.65c1.13-1.03,2.79-.85,3.68.39l.57.79c.89,1.24,2.7,1.63,4.02.86l.84-.49c1.32-.77,2.9-.25,3.52,1.15l.39.89c.62,1.4,2.31,2.16,3.76,1.68l.92-.3c1.45-.48,2.89.36,3.21,1.86l.2.95c.31,1.5,1.81,2.59,3.33,2.43l.96-.1c1.52-.16,2.75.96,2.75,2.49v.97c0,1.53,1.23,2.92,2.75,3.07l.96.1c1.52.16,2.5,1.51,2.18,3.01l-.2.95c-.32,1.5.61,3.11,2.06,3.58l.92.3c1.45.47,2.13,2,1.51,3.4l-.4.89c-.62,1.4-.05,3.17,1.27,3.93l.84.48c1.32.76,1.67,2.4.77,3.64l-.57.79c-.9,1.24-.71,3.09.43,4.11l.72.65c1.14,1.02,1.14,2.7,0,3.72l-.72.65c-1.14,1.02-1.33,2.87-.43,4.11l.57.79c.9,1.24.55,2.88-.77,3.64l-.84.48c-1.32.76-1.89,2.53-1.27,3.93l.4.89c.62,1.4-.05,2.93-1.51,3.4l-.92.3c-1.45.47-2.38,2.08-2.06,3.58l.2.95c.32,1.5-.66,2.85-2.18,3.01l-.96.1c-1.52.16-2.76,1.54-2.75,3.07v.97c0,1.53-1.23,2.65-2.75,2.49l-.96-.1c-1.52-.16-3.01.93-3.33,2.43l-.2.95c-.31,1.5-1.76,2.34-3.21,1.86l-.92-.3c-1.45-.48-3.14.28-3.76,1.68l-.39.89c-.62,1.4-2.2,1.92-3.52,1.15l-.84-.49c-1.32-.77-3.13-.38-4.02.86l-.57.79c-.89,1.24-2.55,1.42-3.68.39l-.72-.65c-1.13-1.03-2.98-1.03-4.11,0l-.72.65c-1.13,1.03-2.79.85-3.68-.39l-.57-.79c-.89-1.24-2.7-1.63-4.02-.86l-.84.49c-1.32.77-2.9.25-3.52-1.15l-.39-.89c-.62-1.4-2.31-2.16-3.76-1.68l-.92.3c-1.45.48-2.89-.36-3.21-1.86l-.2-.95c-.31-1.5-1.81-2.59-3.33-2.43l-.96.1c-1.52.16-2.75-.96-2.75-2.49v-.97c0-1.53-1.23-2.92-2.75-3.07l-.96-.1c-1.52-.16-2.5-1.51-2.18-3.01l.2-.95c.32-1.5-.61-3.11-2.06-3.58l-.92-.3c-1.45-.47-2.13-2-1.51-3.4l.4-.89c.62-1.4.05-3.17-1.27-3.93l-.84-.48c-1.32-.76-1.67-2.4-.77-3.64l.57-.79c.9-1.24.71-3.09-.43-4.11l-.72-.65c-1.14-1.02-1.14-2.7,0-3.72l.72-.65c1.14-1.02,1.33-2.87.43-4.11l-.57-.79c-.9-1.24-.55-2.88.77-3.64l.84-.48c1.32-.76,1.89-2.53,1.27-3.93l-.4-.89c-.62-1.4.05-2.93,1.51-3.4l.92-.3c1.45-.47,2.38-2.08,2.06-3.58l-.2-.95c-.32-1.5.66-2.85,2.18-3.01l.96-.1c1.52-.16,2.76-1.54,2.75-3.07v-.97c0-1.53,1.23-2.65,2.75-2.49l.96.1c1.52.16,3.01-.93,3.33-2.43l.2-.95c.31-1.5,1.76-2.34,3.21-1.86l.92.3c1.45.48,3.14-.28,3.76-1.68l.39-.89c.62-1.4,2.2-1.92,3.52-1.15l.84.49c1.32.77,3.13.38,4.02-.86l.57-.79c.89-1.24,2.55-1.42,3.68-.39l.72.65Z"/>
  </g>
</svg>